<svg version="1.1" id="Layer_1" xmlns="http://www.w3.org/2000/svg" xmlns:xlink="http://www.w3.org/1999/xlink" x="0px" y="0px"
	 width="16px" height="16px" viewBox="0 0 16 16" enable-background="new 0 0 16 16" xml:space="preserve">
<path d="M15,15V6.001H8V0H1v15H0v1h16v-1H15z M2,1h2v1.999H2V1z M2,4h2v2.001H2V4z M2,7h2v2H2V7z M2,10h2v2.001H2V10z
	 M6.001,15H2.999v-1.999h3.002V15z M7,12.001H5.001V10H7V12.001z M7,9H5.001V7H7V9z M7,6.001H5.001V4H7V6.001z M7,2.999H5.001V1H7
	V2.999z M9,7h2v2H9V7z M9,10h2v2.001H9V10z M13.001,15H9.999v-1.999h3.002V15z M14,12.001h-1.999V10H14V12.001z M14,9h-1.999V7H14V9
	z"/>
</svg>
