<svg version="1.1" id="Layer_1" xmlns="http://www.w3.org/2000/svg" xmlns:xlink="http://www.w3.org/1999/xlink" x="0px" y="0px"
	 width="32px" height="32px" viewBox="0 0 32 32" enable-background="new 0 0 32 32" xml:space="preserve">
<path d="M9.283,19.562V9.524H3.202C1.442,9.524,0,10.982,0,12.762v9.71c0,1.784,1.442,3.24,3.202,3.24h1.601v4.855
	l4.798-4.855h8c1.761,0,3.197-1.456,3.197-3.24v-2.944c-0.101,0.021-0.207,0.034-0.318,0.034H9.283z M28.798,1.432H14.399
	c-1.76,0-3.197,1.457-3.197,3.236v12.95h11.197l4.803,4.854v-4.854h1.596c1.761,0,3.202-1.457,3.202-3.238V4.668
	C32,2.889,30.559,1.432,28.798,1.432z"/>
</svg>
