<svg version="1.1" id="Layer_1" xmlns="http://www.w3.org/2000/svg" xmlns:xlink="http://www.w3.org/1999/xlink" x="0px" y="0px"
	 width="23px" height="23px" viewBox="0 0 23 23" enable-background="new 0 0 23 23" xml:space="preserve">
<g>
	<path d="M11.5,0C5.148,0,0,5.149,0,11.5C0,17.852,5.148,23,11.5,23S23,17.852,23,11.5C23,5.149,17.852,0,11.5,0z
		 M13.178,14.614c0,0.658-0.539,1.198-1.198,1.198H8.984l-1.797,1.797v-1.797H6.589c-0.658,0-1.197-0.54-1.197-1.198v-3.594
		c0-0.658,0.539-1.197,1.197-1.197h2.275v3.712h4.193c0.041,0,0.081-0.004,0.12-0.012V14.614z M17.371,11.62
		c0,0.658-0.54,1.198-1.198,1.198h-0.6v1.796l-1.797-1.796H9.583V8.025c0-0.658,0.539-1.197,1.198-1.197h5.392
		c0.658,0,1.198,0.539,1.198,1.197V11.62z"/>
</g>
</svg>
