<svg version="1.1" id="Layer_1" xmlns="http://www.w3.org/2000/svg" xmlns:xlink="http://www.w3.org/1999/xlink" x="0px" y="0px"
	 width="16px" height="16px" viewBox="0 0 16 16" enable-background="new 0 0 16 16" xml:space="preserve">
<g>
	<path d="M13.522,2.42H6.491c-0.131,0-0.237,0.107-0.237,0.238v0.878c0,0.132,0.105,0.238,0.237,0.238h5.919v8.45H6.491
		c-0.132,0-0.237,0.107-0.237,0.238v0.879c0,0.131,0.105,0.238,0.237,0.238h7.031c0.132,0,0.237-0.107,0.237-0.238V2.659
		C13.76,2.528,13.654,2.42,13.522,2.42z M6.604,10.279L5.159,8.829h6.256c0.131,0,0.237-0.106,0.237-0.238V7.41
		c0-0.132-0.106-0.238-0.237-0.238H5.159l1.444-1.45c0.094-0.093,0.094-0.244,0-0.337L5.846,4.623
		C5.801,4.579,5.74,4.553,5.678,4.553c-0.063,0-0.124,0.025-0.168,0.069L2.311,7.832C2.266,7.876,2.24,7.937,2.24,8
		c0,0.063,0.025,0.123,0.07,0.168l3.199,3.208c0.088,0.09,0.246,0.09,0.336,0l0.758-0.762C6.697,10.523,6.697,10.371,6.604,10.279z"
		/>
</g>
</svg>
