<svg version="1.1" id="Layer_1" xmlns="http://www.w3.org/2000/svg" xmlns:xlink="http://www.w3.org/1999/xlink" x="0px" y="0px"
	 width="16px" height="16px" viewBox="0 0 16 16" enable-background="new 0 0 16 16" xml:space="preserve">
<path d="M8.001,11H7.047V0h0.954V11z M12.766,2l2.857-2H8.954v4h6.669L12.766,2z M10.859,5L8.954,6v1.118l1.429-0.75
	v5.764l-4.765,2.5V8.868l0.476-0.25V7.5L5.142,8L0.377,5v8l4.765,3l5.717-3l4.764,3V8L10.859,5z M4.666,14.534l-3.335-2.101V6.766
	l3.321,2.092l0.014,0.009V14.534z M14.67,14.234l-3.318-2.091l-0.016-0.01V6.467l3.334,2.1V14.234z"/>
</svg>
