<svg version="1.1" id="Layer_1" xmlns="http://www.w3.org/2000/svg" xmlns:xlink="http://www.w3.org/1999/xlink" x="0px" y="0px"
	 width="16px" height="16px" viewBox="0 0 16 16" enable-background="new 0 0 16 16" xml:space="preserve">
<path d="M8.09,6.326c0.266,0,0.518,0.055,0.746,0.153c0.018-0.372,0.146-0.714,0.352-0.997
	C9.043,5.452,8.893,5.436,8.74,5.436H7.285c-0.154,0-0.303,0.017-0.449,0.047c0.223,0.302,0.354,0.672,0.355,1.073
	C7.459,6.409,7.764,6.326,8.09,6.326z M8.01,5.319c0.949,0,1.717-0.762,1.717-1.701c0-0.94-0.768-1.702-1.717-1.702
	c-0.945,0-1.713,0.762-1.713,1.702C6.297,4.558,7.064,5.319,8.01,5.319z M10.705,8.224c0.871,0,1.578-0.701,1.578-1.566
	c0-0.867-0.707-1.568-1.578-1.568c-0.865,0-1.566,0.688-1.58,1.544c0.498,0.31,0.848,0.833,0.912,1.442
	C10.24,8.17,10.465,8.224,10.705,8.224z M5.318,5.088c-0.871,0-1.578,0.702-1.578,1.569c0,0.865,0.707,1.566,1.578,1.566
	c0.311,0,0.598-0.09,0.84-0.242c0.08-0.501,0.348-0.939,0.736-1.238c0.002-0.028,0.004-0.058,0.004-0.086
	C6.898,5.79,6.191,5.088,5.318,5.088z M11.729,5.055c0.498,0.31,0.85,0.834,0.912,1.442c0.203,0.096,0.428,0.149,0.666,0.149
	c0.875,0,1.582-0.702,1.582-1.567c0-0.866-0.707-1.567-1.582-1.567C12.443,3.511,11.744,4.199,11.729,5.055z M8.09,9.843
	c0.873,0,1.58-0.702,1.58-1.568S8.963,6.707,8.09,6.707c-0.871,0-1.578,0.701-1.578,1.567S7.219,9.843,8.09,9.843z M11.375,8.33
	h-1.332c-0.014,0.528-0.24,1.004-0.6,1.347c0.992,0.292,1.717,1.205,1.717,2.283v0.5c1.313-0.048,2.068-0.417,2.119-0.441
	l0.105-0.054h0.012v-1.627C13.396,9.231,12.488,8.33,11.375,8.33z M13.979,6.753h-1.33c-0.014,0.528-0.242,1.004-0.602,1.345
	c0.992,0.294,1.717,1.206,1.717,2.284v0.501c1.313-0.049,2.07-0.417,2.121-0.442l0.104-0.053H16V8.761
	C16,7.653,15.094,6.753,13.979,6.753z M6.738,9.677C6.381,9.336,6.154,8.862,6.137,8.339C6.088,8.335,6.039,8.33,5.988,8.33h-1.34
	c-1.113,0-2.021,0.901-2.021,2.008v1.628l0.004,0.025l0.113,0.034c0.852,0.265,1.615,0.387,2.277,0.426v-0.49
	C5.021,10.882,5.746,9.969,6.738,9.677z M8.762,9.948h-1.34c-1.117,0-2.023,0.902-2.023,2.008v1.627l0.004,0.026l0.113,0.035
	c1.063,0.329,1.988,0.439,2.75,0.439c1.486,0,2.348-0.42,2.4-0.447l0.105-0.054h0.012v-1.627
	C10.783,10.851,9.875,9.948,8.762,9.948z M2.691,6.696c0.24,0,0.467-0.055,0.668-0.148c0.064-0.608,0.414-1.134,0.912-1.443
	C4.258,4.25,3.557,3.56,2.691,3.56c-0.871,0-1.578,0.702-1.578,1.569C1.113,5.994,1.82,6.696,2.691,6.696z M3.953,8.148
	C3.592,7.808,3.365,7.331,3.352,6.803h-1.33C0.906,6.803,0,7.704,0,8.811v1.628h0.012l0.105,0.053
	c0.049,0.025,0.805,0.394,2.119,0.441v-0.501C2.236,9.354,2.961,8.441,3.953,8.148z M4.539,4.935
	c0.189-0.079,0.479-0.171,0.754-0.171c0.322,0,0.637,0.082,0.916,0.237C6.273,4.94,6.328,4.874,6.381,4.804
	c-0.266-0.347-0.41-0.773-0.41-1.211c0-0.295,0.064-0.588,0.191-0.853C5.875,2.482,5.508,2.341,5.117,2.341
	c-0.711,0-1.328,0.478-1.508,1.149C4.139,3.798,4.484,4.333,4.539,4.935z M9.654,4.715c0.057,0.087,0.119,0.169,0.193,0.244
	c0.258-0.128,0.543-0.195,0.832-0.195c0.281,0,0.553,0.071,0.73,0.131c0.055-0.65,0.451-1.225,1.045-1.515
	c-0.217-0.618-0.807-1.039-1.473-1.039c-0.434,0-0.84,0.177-1.137,0.484c0.105,0.246,0.156,0.505,0.156,0.768
	C10.002,3.998,9.883,4.383,9.654,4.715z"/>
</svg>
