<?xml version="1.0" encoding="utf-8"?>
<!-- Generator: Adobe Illustrator 16.0.0, SVG Export Plug-In . SVG Version: 6.00 Build 0)  -->
<!DOCTYPE svg PUBLIC "-//W3C//DTD SVG 1.1//EN" "http://www.w3.org/Graphics/SVG/1.1/DTD/svg11.dtd">
<svg version="1.1" id="Layer_1" xmlns="http://www.w3.org/2000/svg" xmlns:xlink="http://www.w3.org/1999/xlink" x="0px" y="0px"
	 width="423px" height="269px" viewBox="0 0 423 269" enable-background="new 0 0 423 269" xml:space="preserve">
<path fill-rule="evenodd" clip-rule="evenodd" fill="#3953A4" d="M126.593,160.029c0.296,0,0.537,0.235,0.537,0.525
	c0,0.291-0.24,0.526-0.537,0.526s-0.537-0.235-0.537-0.526C126.057,160.265,126.297,160.029,126.593,160.029z"/>
<path fill-rule="evenodd" clip-rule="evenodd" fill="#3953A4" d="M120.833,148.51c0.296,0,0.536,0.234,0.536,0.525
	s-0.24,0.525-0.536,0.525s-0.537-0.234-0.537-0.525S120.537,148.51,120.833,148.51z"/>
<path fill-rule="evenodd" clip-rule="evenodd" fill="#3953A4" d="M141.953,147.069c0.296,0,0.537,0.235,0.537,0.526
	c0,0.29-0.24,0.525-0.537,0.525s-0.536-0.235-0.536-0.525C141.417,147.305,141.657,147.069,141.953,147.069z"/>
<path fill-rule="evenodd" clip-rule="evenodd" fill="#3953A4" d="M133.073,176.35c0.296,0,0.537,0.234,0.537,0.525
	s-0.24,0.525-0.537,0.525s-0.537-0.234-0.537-0.525S132.777,176.35,133.073,176.35z"/>
<path fill-rule="evenodd" clip-rule="evenodd" fill="#3953A4" d="M141.713,159.309c0.296,0,0.537,0.236,0.537,0.526
	s-0.24,0.526-0.537,0.526s-0.537-0.236-0.537-0.526S141.417,159.309,141.713,159.309z"/>
<path fill-rule="evenodd" clip-rule="evenodd" fill="#3953A4" d="M165.713,149.709c0.296,0,0.537,0.236,0.537,0.526
	s-0.24,0.526-0.537,0.526s-0.537-0.236-0.537-0.526S165.417,149.709,165.713,149.709z"/>
<path fill-rule="evenodd" clip-rule="evenodd" fill="#3953A4" d="M155.633,124.269c0.296,0,0.537,0.235,0.537,0.526
	s-0.24,0.526-0.537,0.526s-0.537-0.235-0.537-0.526S155.337,124.269,155.633,124.269z"/>
<path fill-rule="evenodd" clip-rule="evenodd" fill="#3953A4" d="M117.233,131.709c0.296,0,0.537,0.235,0.537,0.526
	s-0.24,0.526-0.537,0.526s-0.537-0.236-0.537-0.526S116.937,131.709,117.233,131.709z"/>
<path fill-rule="evenodd" clip-rule="evenodd" fill="#3953A4" d="M184.193,127.149c0.297,0,0.537,0.235,0.537,0.526
	s-0.24,0.526-0.537,0.526s-0.537-0.235-0.537-0.526S183.896,127.149,184.193,127.149z"/>
<path fill-rule="evenodd" clip-rule="evenodd" fill="#3953A4" d="M134.273,128.109c0.296,0,0.537,0.236,0.537,0.526
	c0,0.29-0.24,0.526-0.537,0.526s-0.537-0.236-0.537-0.526C133.737,128.345,133.977,128.109,134.273,128.109z"/>
<path fill-rule="evenodd" clip-rule="evenodd" fill="#3953A4" d="M347.153,126.669c0.296,0,0.536,0.235,0.536,0.526
	s-0.24,0.526-0.536,0.526s-0.536-0.235-0.536-0.526S346.857,126.669,347.153,126.669z"/>
<path fill-rule="evenodd" clip-rule="evenodd" fill="#3953A4" d="M274.673,123.309c0.297,0,0.537,0.235,0.537,0.526
	s-0.24,0.526-0.537,0.526c-0.296,0-0.536-0.235-0.536-0.526S274.377,123.309,274.673,123.309z"/>
<path fill-rule="evenodd" clip-rule="evenodd" fill="#3953A4" d="M223.073,115.869c0.297,0,0.536,0.235,0.536,0.526
	s-0.239,0.526-0.536,0.526c-0.296,0-0.536-0.235-0.536-0.526S222.777,115.869,223.073,115.869z"/>
</svg>
