<svg version="1.1" id="Layer_1" xmlns="http://www.w3.org/2000/svg" xmlns:xlink="http://www.w3.org/1999/xlink" x="0px" y="0px"
	 width="32px" height="32px" viewBox="0 0 32 32" enable-background="new 0 0 32 32" xml:space="preserve">
<path d="M23.184,2.193C21.181,0.729,18.667,0,15.639,0c-2.301,0-4.246,0.515-5.826,1.543
	c-2.508,1.61-3.842,4.345-4,8.202h5.806c0-1.122,0.328-2.205,0.973-3.248c0.65-1.042,1.748-1.565,3.303-1.565
	c1.575,0,2.663,0.424,3.254,1.271c0.598,0.845,0.896,1.782,0.896,2.812c0,0.893-0.442,1.711-0.977,2.456
	c-0.294,0.433-0.685,0.833-1.166,1.199c0,0-3.148,2.044-4.53,3.686c-0.804,0.953-0.876,2.381-0.948,4.43
	c-0.005,0.145,0.053,0.447,0.554,0.447c0.505,0,4.073,0,4.521,0c0.448,0,0.539-0.337,0.549-0.486
	c0.029-0.748,0.111-1.129,0.246-1.56c0.255-0.812,0.943-1.521,1.719-2.131l1.604-1.117c1.435-1.139,2.59-2.073,3.101-2.802
	c0.866-1.204,1.473-2.687,1.473-4.446C26.188,5.821,25.187,3.654,23.184,2.193z M15.547,24.757
	c-2.003-0.063-3.654,1.339-3.717,3.534s1.507,3.649,3.51,3.707c2.089,0.063,3.698-1.29,3.76-3.485
	C19.163,26.313,17.637,24.814,15.547,24.757z"/>
</svg>
