<svg version="1.1" id="Layer_1" xmlns="http://www.w3.org/2000/svg" xmlns:xlink="http://www.w3.org/1999/xlink" x="0px" y="0px"
	 width="23px" height="23px" viewBox="0 0 23 23" enable-background="new 0 0 23 23" xml:space="preserve">
<g>
	<path d="M11.501-0.001c-6.352,0-11.5,5.149-11.5,11.5c0,6.354,5.148,11.502,11.5,11.502
		c6.349,0,11.498-5.148,11.498-11.502C22.999,5.148,17.85-0.001,11.501-0.001z M11.133,17.67c-0.751-0.023-1.34-0.561-1.316-1.375
		c0.023-0.813,0.644-1.333,1.395-1.311c0.783,0.023,1.354,0.578,1.329,1.392C12.518,17.19,11.916,17.692,11.133,17.67z
		 M14.646,10.678c-0.19,0.271-0.622,0.617-1.164,1.039l-0.599,0.416c-0.291,0.225-0.548,0.488-0.644,0.789
		c-0.051,0.16-0.082,0.301-0.094,0.577c-0.002,0.054-0.037,0.18-0.204,0.18h-1.694c-0.188,0-0.209-0.112-0.208-0.166
		c0.027-0.758,0.054-1.287,0.354-1.64c0.519-0.61,1.7-1.368,1.7-1.368c0.18-0.136,0.323-0.283,0.433-0.444
		c0.201-0.275,0.367-0.579,0.367-0.91c0-0.381-0.111-0.729-0.334-1.042c-0.222-0.313-0.629-0.471-1.22-0.471
		c-0.582,0-0.994,0.193-1.237,0.579C9.859,8.604,9.738,9.005,9.738,9.421H7.56c0.061-1.43,0.561-2.443,1.5-3.04
		C9.652,6,10.381,5.809,11.245,5.809c1.134,0,2.077,0.271,2.828,0.813c0.751,0.541,1.126,1.345,1.126,2.408
		C15.199,9.682,14.972,10.231,14.646,10.678z"/>
</g>
</svg>
