<svg version="1.1" id="Layer_1" xmlns="http://www.w3.org/2000/svg" xmlns:xlink="http://www.w3.org/1999/xlink" x="0px" y="0px"
	 width="16px" height="16px" viewBox="0 0 16 16" enable-background="new 0 0 16 16" xml:space="preserve">
<g>
	<path d="M15.997,12.475c0-0.033-0.002-0.066-0.004-0.102c0-0.035-0.002-0.072-0.004-0.105V12.24l-0.002-0.014v-0.039
		l-0.004-0.045c-0.004-0.059-0.008-0.117-0.012-0.174l-0.004-0.045l-0.006-0.059c-0.003-0.039-0.007-0.078-0.011-0.115
		c-0.004-0.039-0.008-0.076-0.012-0.113c-0.002-0.02-0.002-0.037-0.004-0.057c-0.002-0.018-0.006-0.035-0.008-0.053
		c-0.021-0.139-0.036-0.275-0.063-0.406c-0.01-0.064-0.021-0.129-0.034-0.193c-0.012-0.063-0.024-0.123-0.038-0.182
		c-0.021-0.119-0.052-0.232-0.078-0.334c-0.006-0.025-0.012-0.053-0.018-0.076c-0.007-0.025-0.013-0.047-0.021-0.072
		c-0.014-0.045-0.024-0.09-0.036-0.133c-0.014-0.039-0.024-0.08-0.034-0.113c-0.012-0.037-0.021-0.071-0.032-0.099
		c-0.014-0.044-0.025-0.08-0.036-0.108c-0.012-0.042-0.056-0.066-0.1-0.055l-2.705,0.771c-0.04,0.01-0.068,0.051-0.06,0.094
		c0.004,0.014,0.008,0.031,0.01,0.053c0.006,0.021,0.01,0.043,0.014,0.066c0.002,0.025,0.006,0.053,0.013,0.082
		c0.004,0.027,0.008,0.057,0.014,0.09c0.002,0.016,0.006,0.031,0.008,0.047c0.002,0.02,0.004,0.037,0.006,0.053
		c0.006,0.07,0.019,0.146,0.022,0.227c0.004,0.041,0.008,0.082,0.012,0.125c0.002,0.041,0.004,0.084,0.006,0.127
		c0.004,0.09,0.002,0.182,0.004,0.273v0.064c-0.002,0.02-0.002,0.039-0.002,0.061c-0.002,0.02-0.002,0.039-0.002,0.059v0.074
		c-0.004,0.061-0.006,0.119-0.008,0.178l-0.002,0.043l-0.002,0.006c0,0.001,0-0.006,0-0.014l-0.002,0.016
		c-0.002,0.025-0.004,0.047-0.006,0.07s-0.004,0.047-0.008,0.068c-0.002,0.023-0.005,0.045-0.009,0.066
		c-0.004,0.045-0.008,0.088-0.014,0.133c-0.008,0.041-0.014,0.086-0.021,0.127c-0.008,0.041-0.012,0.082-0.02,0.119
		c-0.006,0.041-0.014,0.078-0.022,0.115c-0.008,0.035-0.012,0.072-0.021,0.105c-0.008,0.033-0.017,0.064-0.022,0.094
		c-0.004,0.018-0.006,0.033-0.01,0.045c-0.002,0.012-0.006,0.025-0.01,0.035c-0.002,0.008-0.004,0.016-0.006,0.021h3.308
		c0.044,0,0.082-0.035,0.084-0.078c0.002-0.063,0.004-0.125,0.008-0.191c0.002-0.064,0.002-0.131,0.005-0.195
		c0.002-0.066,0-0.135,0-0.205C16,12.545,15.997,12.512,15.997,12.475z M15.138,9.012c0.044-0.018,0.065-0.07,0.044-0.112
		c-0.01-0.02-0.019-0.042-0.032-0.067c-0.012-0.023-0.022-0.051-0.036-0.079c-0.02-0.036-0.038-0.075-0.058-0.116
		c-0.021-0.041-0.043-0.085-0.066-0.131c-0.012-0.024-0.024-0.045-0.034-0.067c-0.012-0.022-0.026-0.045-0.036-0.067
		c-0.026-0.047-0.052-0.095-0.078-0.145c-0.03-0.049-0.061-0.099-0.09-0.151c-0.017-0.025-0.03-0.052-0.047-0.078
		c-0.018-0.027-0.032-0.053-0.05-0.079c-0.034-0.054-0.068-0.108-0.103-0.163c-0.072-0.109-0.148-0.222-0.23-0.333
		c-0.018-0.028-0.04-0.055-0.058-0.083l-0.03-0.042l-0.034-0.041c-0.042-0.056-0.084-0.11-0.126-0.166
		c-0.045-0.054-0.089-0.107-0.133-0.16c-0.024-0.027-0.044-0.054-0.068-0.08c-0.021-0.025-0.044-0.052-0.065-0.077
		c-0.022-0.025-0.047-0.052-0.068-0.076c-0.022-0.025-0.044-0.051-0.068-0.075c-0.044-0.049-0.09-0.097-0.135-0.145
		c-0.046-0.047-0.092-0.092-0.136-0.136s-0.089-0.088-0.133-0.128c-0.044-0.041-0.084-0.08-0.124-0.118s-0.082-0.073-0.122-0.107
		s-0.076-0.067-0.112-0.099c-0.036-0.029-0.07-0.058-0.103-0.084c-0.032-0.027-0.064-0.052-0.092-0.075
		c-0.028-0.023-0.057-0.043-0.078-0.062c-0.036-0.026-0.064-0.049-0.089-0.066c-0.036-0.027-0.086-0.021-0.114,0.013l-1.451,1.755
		c-0.026,0.031-0.026,0.081,0.006,0.11c0.01,0.013,0.026,0.025,0.042,0.042c0.014,0.015,0.032,0.03,0.048,0.05
		c0.019,0.019,0.038,0.039,0.059,0.061C11.158,7.653,11.178,7.676,11.2,7.7c0.023,0.025,0.046,0.052,0.072,0.078
		c0.021,0.027,0.048,0.056,0.073,0.086c0.024,0.03,0.053,0.062,0.079,0.094c0.025,0.031,0.054,0.065,0.08,0.101
		c0.025,0.035,0.056,0.069,0.082,0.106c0.026,0.036,0.054,0.074,0.082,0.111c0.014,0.019,0.026,0.038,0.04,0.058
		s0.026,0.039,0.04,0.06c0.015,0.02,0.026,0.039,0.04,0.059c0.015,0.021,0.026,0.04,0.04,0.062c0.024,0.04,0.053,0.081,0.076,0.122
		c0.024,0.041,0.051,0.082,0.074,0.124l0.019,0.03l0.016,0.032c0.012,0.021,0.024,0.042,0.034,0.063
		c0.048,0.082,0.088,0.166,0.13,0.246c0.019,0.04,0.036,0.08,0.057,0.119c0.01,0.021,0.016,0.039,0.026,0.059
		c0.008,0.02,0.018,0.039,0.025,0.058c0.015,0.038,0.032,0.074,0.047,0.109c0.014,0.037,0.027,0.071,0.04,0.104
		c0.008,0.018,0.014,0.033,0.02,0.05c0.006,0.016,0.015,0.031,0.019,0.045c0.008,0.026,0.018,0.053,0.025,0.076
		c0.011,0.024,0.019,0.047,0.024,0.068c0.01,0.028,0.018,0.055,0.026,0.078c0.008,0.026,0.016,0.051,0.023,0.07
		c0.017,0.047,0.064,0.068,0.108,0.053L15.138,9.012z M7.744,5.878c0.022,0.003,0.047,0.007,0.074,0.01
		c0.026,0.006,0.054,0.01,0.084,0.016c0.03,0.005,0.063,0.011,0.098,0.017c0.03,0.005,0.06,0.012,0.092,0.019l0.918-1.871
		C8.962,4.061,8.916,4.054,8.874,4.047c-0.032-0.004-0.062-0.01-0.09-0.014c-0.03-0.003-0.06-0.007-0.088-0.01
		C8.638,4.016,8.582,4.01,8.527,4.004S8.419,3.993,8.37,3.989C8.319,3.985,8.27,3.98,8.225,3.979
		c-0.046-0.003-0.09-0.005-0.131-0.006C8.053,3.97,8.014,3.969,7.979,3.967C7.943,3.966,7.911,3.966,7.881,3.965
		c-0.041,0-0.077-0.001-0.105-0.001C7.731,3.963,7.695,3.998,7.693,4.043L7.609,5.784c-0.001,0.042,0.029,0.08,0.072,0.085
		C7.699,5.872,7.72,5.876,7.744,5.878z M11.751,5.067c-0.02-0.011-0.04-0.022-0.066-0.036c-0.01-0.007-0.021-0.014-0.033-0.021
		c-0.013-0.008-0.028-0.016-0.043-0.024c-0.033-0.019-0.071-0.038-0.109-0.061c-0.041-0.021-0.083-0.044-0.127-0.067
		c-0.042-0.021-0.086-0.044-0.132-0.066c-0.044-0.022-0.093-0.048-0.145-0.07c-0.05-0.023-0.101-0.048-0.154-0.071
		c-0.055-0.026-0.11-0.049-0.167-0.072c-0.058-0.023-0.116-0.049-0.176-0.071c-0.015-0.006-0.03-0.012-0.047-0.018l-0.515,2.235
		c0.028,0.019,0.056,0.037,0.082,0.054c0.03,0.021,0.061,0.041,0.088,0.06c0.024,0.017,0.049,0.033,0.068,0.05
		c0.024,0.016,0.044,0.031,0.064,0.044c0.008,0.006,0.02,0.016,0.032,0.024c0.012,0.009,0.021,0.017,0.032,0.024
		c0.023,0.017,0.042,0.031,0.06,0.044c0.038,0.028,0.093,0.02,0.118-0.021l1.197-1.819C11.806,5.146,11.793,5.091,11.751,5.067z
		 M5.997,5.889c0.048-0.007,0.094-0.013,0.142-0.02C6.161,5.866,6.184,5.862,6.206,5.86C6.229,5.857,6.25,5.855,6.274,5.854
		C6.318,5.849,6.36,5.845,6.402,5.84c0.042-0.003,0.082-0.006,0.121-0.008C6.542,5.83,6.561,5.829,6.579,5.828
		c0.018-0.002,0.037-0.003,0.053-0.003c0.032-0.001,0.063-0.001,0.091-0.002C6.751,5.822,6.779,5.821,6.804,5.82h0.084
		c0.028-0.001,0.053-0.001,0.075-0.001c0.048,0,0.084-0.041,0.083-0.088L6.937,4.091C6.935,4.044,6.892,4.008,6.844,4.014
		c-0.021,0.003-0.045,0.007-0.074,0.01C6.745,4.026,6.716,4.03,6.685,4.034C6.648,4.04,6.608,4.046,6.566,4.052
		C6.523,4.059,6.479,4.065,6.431,4.072C6.406,4.075,6.384,4.081,6.36,4.085C6.337,4.089,6.312,4.094,6.287,4.099
		c-0.047,0.01-0.099,0.02-0.153,0.029C6.083,4.141,6.028,4.152,5.972,4.165c-0.027,0.007-0.056,0.013-0.084,0.02
		C5.859,4.191,5.831,4.199,5.802,4.206C5.745,4.222,5.686,4.237,5.624,4.254C5.565,4.271,5.505,4.29,5.444,4.309
		C5.413,4.317,5.383,4.327,5.351,4.337C5.32,4.348,5.29,4.357,5.259,4.368c-0.031,0.01-0.061,0.021-0.092,0.031
		S5.105,4.421,5.074,4.433C5.013,4.456,4.952,4.479,4.89,4.503C4.829,4.527,4.769,4.554,4.708,4.579
		c-0.031,0.013-0.06,0.024-0.09,0.038C4.588,4.631,4.559,4.645,4.529,4.658c-0.03,0.014-0.059,0.027-0.087,0.04
		C4.412,4.712,4.384,4.726,4.356,4.74C4.298,4.769,4.243,4.796,4.188,4.824C4.134,4.852,4.081,4.882,4.029,4.91
		C3.978,4.938,3.926,4.965,3.878,4.994C3.83,5.023,3.784,5.051,3.739,5.077c-0.046,0.026-0.088,0.055-0.13,0.081
		c-0.041,0.026-0.08,0.051-0.117,0.075C3.455,5.259,3.42,5.282,3.387,5.305C3.354,5.328,3.324,5.349,3.295,5.368
		C3.268,5.388,3.243,5.406,3.22,5.423C3.189,5.446,3.162,5.466,3.141,5.481c-0.037,0.026-0.044,0.076-0.02,0.113l0.682,1.001
		c0.025,0.036,0.072,0.047,0.109,0.025C3.931,6.612,3.951,6.6,3.974,6.587C3.995,6.576,4.017,6.563,4.042,6.55
		c0.024-0.014,0.052-0.027,0.081-0.042C4.151,6.492,4.181,6.477,4.214,6.46C4.246,6.444,4.28,6.428,4.316,6.411
		c0.036-0.018,0.072-0.036,0.112-0.053c0.039-0.018,0.08-0.035,0.121-0.054c0.042-0.019,0.085-0.034,0.13-0.053
		c0.044-0.017,0.088-0.036,0.134-0.053C4.86,6.183,4.906,6.166,4.954,6.148C4.979,6.14,5.002,6.132,5.026,6.124
		C5.051,6.116,5.076,6.108,5.1,6.101c0.024-0.008,0.048-0.016,0.074-0.023c0.024-0.008,0.049-0.015,0.074-0.021
		c0.051-0.015,0.102-0.029,0.151-0.043C5.45,6,5.5,5.988,5.551,5.976c0.025-0.007,0.051-0.012,0.075-0.017
		c0.025-0.005,0.05-0.012,0.076-0.016c0.025-0.006,0.05-0.011,0.074-0.017c0.025-0.005,0.05-0.009,0.075-0.013
		C5.899,5.905,5.948,5.897,5.997,5.889z M2.452,6.06C2.437,6.075,2.419,6.092,2.399,6.111C2.389,6.12,2.38,6.13,2.369,6.141
		c-0.01,0.01-0.021,0.019-0.034,0.031c-0.024,0.025-0.051,0.053-0.08,0.081c-0.028,0.029-0.059,0.06-0.091,0.092
		C2.135,6.377,2.104,6.411,2.071,6.446c-0.032,0.036-0.066,0.071-0.1,0.11c-0.034,0.039-0.069,0.08-0.104,0.121
		C1.83,6.719,1.795,6.763,1.759,6.808c-0.036,0.045-0.074,0.09-0.11,0.137C1.613,6.992,1.576,7.04,1.54,7.089
		C1.521,7.113,1.502,7.138,1.485,7.164c-0.018,0.024-0.036,0.05-0.054,0.075C1.413,7.266,1.395,7.29,1.377,7.316
		C1.359,7.342,1.342,7.369,1.324,7.395C1.29,7.448,1.254,7.5,1.22,7.553C1.188,7.607,1.154,7.661,1.121,7.715l-0.024,0.04
		L1.074,7.796C1.058,7.823,1.042,7.849,1.027,7.877C0.964,7.983,0.909,8.093,0.854,8.195C0.828,8.249,0.802,8.301,0.777,8.353
		c-0.013,0.024-0.024,0.05-0.037,0.075c-0.011,0.024-0.022,0.05-0.034,0.074C0.685,8.551,0.664,8.599,0.643,8.645
		C0.624,8.692,0.605,8.737,0.587,8.78C0.569,8.823,0.551,8.864,0.536,8.904S0.507,8.982,0.494,9.018
		C0.48,9.054,0.468,9.087,0.457,9.118C0.446,9.149,0.436,9.177,0.428,9.203C0.416,9.237,0.406,9.267,0.397,9.29
		c-0.014,0.042,0.008,0.088,0.05,0.104l0.635,0.242c0.04,0.017,0.086-0.002,0.105-0.041c0.009-0.019,0.021-0.042,0.032-0.068
		C1.23,9.504,1.242,9.479,1.254,9.454c0.014-0.026,0.028-0.055,0.044-0.085C1.313,9.34,1.33,9.308,1.348,9.274
		C1.365,9.24,1.386,9.206,1.406,9.17S1.447,9.096,1.47,9.057c0.022-0.038,0.046-0.077,0.071-0.118
		c0.012-0.02,0.024-0.04,0.037-0.062c0.013-0.02,0.026-0.041,0.04-0.062c0.027-0.042,0.055-0.084,0.083-0.129
		c0.06-0.083,0.118-0.172,0.185-0.258c0.015-0.021,0.031-0.044,0.048-0.065l0.024-0.032l0.026-0.032
		c0.034-0.043,0.068-0.086,0.102-0.128C2.12,8.129,2.157,8.088,2.191,8.045c0.018-0.021,0.035-0.042,0.053-0.061
		c0.018-0.021,0.036-0.04,0.054-0.061c0.018-0.02,0.036-0.04,0.054-0.059C2.37,7.845,2.388,7.826,2.406,7.807
		c0.037-0.038,0.073-0.075,0.108-0.112C2.55,7.658,2.587,7.624,2.622,7.59c0.034-0.033,0.069-0.066,0.104-0.098
		C2.761,7.46,2.793,7.43,2.826,7.4s0.066-0.056,0.096-0.082c0.031-0.026,0.061-0.052,0.089-0.076C3.038,7.222,3.064,7.2,3.088,7.182
		c0.025-0.021,0.047-0.038,0.069-0.055C3.167,7.118,3.18,7.109,3.191,7.101c0.011-0.009,0.022-0.017,0.032-0.024
		c0.023-0.018,0.043-0.031,0.06-0.044c0.039-0.029,0.044-0.084,0.013-0.121L2.573,6.066C2.542,6.029,2.486,6.027,2.452,6.06z
		 M0.834,10.215l-0.561-0.15c-0.046-0.014-0.093,0.018-0.103,0.063c-0.004,0.021-0.009,0.047-0.015,0.072
		c-0.005,0.027-0.01,0.055-0.017,0.084c-0.006,0.031-0.012,0.068-0.019,0.105c-0.006,0.039-0.013,0.08-0.021,0.121
		c-0.003,0.021-0.007,0.043-0.011,0.064c-0.003,0.023-0.006,0.045-0.009,0.068c-0.012,0.09-0.027,0.191-0.037,0.295
		c-0.005,0.055-0.01,0.105-0.016,0.162c-0.004,0.057-0.007,0.111-0.011,0.168c-0.009,0.115-0.011,0.236-0.014,0.354L0,11.668v0.043
		c0,0.033,0,0.061,0.001,0.094c0,0.029,0,0.059,0,0.09v0.045l0.001,0.047c0.002,0.063,0.005,0.123,0.007,0.182l0.002,0.045l0,0.016
		l0,0.01l0.002,0.023c0.002,0.029,0.004,0.057,0.006,0.086s0.004,0.057,0.006,0.086c0.004,0.029,0.006,0.063,0.009,0.09
		c0.003,0.029,0.005,0.059,0.008,0.088c0.001,0.014,0.003,0.029,0.005,0.045c0.002,0.014,0.003,0.027,0.005,0.041
		c0.007,0.057,0.015,0.113,0.021,0.166c0.008,0.055,0.017,0.107,0.024,0.158c0.007,0.051,0.017,0.102,0.025,0.15
		c0.001,0.004,0.002,0.008,0.002,0.012C0.136,13.223,0.17,13.25,0.21,13.25h0.224c0.047,0,0.085-0.041,0.083-0.086
		c0-0.016-0.001-0.027-0.002-0.041c-0.003-0.047-0.006-0.094-0.007-0.143c-0.001-0.049-0.003-0.1-0.005-0.152
		c0-0.051-0.001-0.104-0.001-0.156c0-0.014,0-0.027,0-0.043c0-0.012,0.001-0.025,0.001-0.039c0-0.025,0.001-0.055,0.002-0.08
		c0-0.025,0.001-0.055,0.002-0.082c0.001-0.029,0.002-0.057,0.003-0.086c0.001-0.029,0.003-0.059,0.004-0.09l0.001-0.02l0-0.012
		v-0.002l0-0.006L0.52,12.17c0.005-0.055,0.009-0.111,0.014-0.168l0.003-0.041l0.005-0.045c0.003-0.027,0.007-0.057,0.01-0.084
		c0.003-0.027,0.006-0.057,0.01-0.084l0.005-0.043l0.006-0.039c0.018-0.111,0.032-0.221,0.053-0.326
		c0.01-0.051,0.019-0.102,0.029-0.152c0.011-0.049,0.022-0.098,0.033-0.146c0.02-0.094,0.045-0.182,0.065-0.264
		c0.005-0.02,0.011-0.041,0.016-0.061c0.005-0.018,0.011-0.035,0.016-0.055c0.011-0.035,0.021-0.068,0.03-0.102
		c0.01-0.031,0.018-0.061,0.027-0.09c0.01-0.027,0.019-0.057,0.027-0.08c0.008-0.025,0.017-0.051,0.023-0.07
		C0.907,10.273,0.881,10.227,0.834,10.215z M10.462,3.012c0.036-0.155-0.088-0.262-0.213-0.262c-0.071,0-0.144,0.037-0.186,0.12
		L9.436,4.151L8.509,6.04L5.93,11.307c-0.313,0.639-0.048,1.412,0.593,1.725c0.183,0.088,0.375,0.129,0.566,0.129
		c0.477,0,0.937-0.264,1.161-0.721c0.043-0.088,0.076-0.188,0.097-0.277l1.308-5.659l0.497-2.155L10.462,3.012z M7.137,12.471
		c-0.35,0-0.633-0.281-0.633-0.631s0.284-0.631,0.633-0.631s0.633,0.281,0.633,0.631S7.487,12.471,7.137,12.471z"/>
</g>
</svg>
