<svg version="1.1" id="Layer_1" xmlns="http://www.w3.org/2000/svg" xmlns:xlink="http://www.w3.org/1999/xlink" x="0px" y="0px"
	 width="16px" height="16px" viewBox="0 0 16 16" enable-background="new 0 0 16 16" xml:space="preserve">
<path d="M2.34,2.338c-1.527,1.529-2.304,3.519-2.339,5.52c3.646,0,7.409,0,7.858,0c0-0.472,0-4.322,0-7.858
	C5.859,0.035,3.867,0.81,2.34,2.338z M2.34,13.66c3.012,3.013,7.822,3.112,10.963,0.321L8.139,8.819h-8.1
	C0.22,10.586,0.985,12.304,2.34,13.66z M8.817,0.036v8.102l5.163,5.166c2.791-3.145,2.69-7.954-0.32-10.966
	C12.304,0.982,10.586,0.217,8.817,0.036z"/>
</svg>
