<svg version="1.1" id="Layer_1" xmlns="http://www.w3.org/2000/svg" xmlns:xlink="http://www.w3.org/1999/xlink" x="0px" y="0px"
	 width="23px" height="23px" viewBox="0 0 23 23" enable-background="new 0 0 23 23" xml:space="preserve">
<g>
	<path d="M11.5,0.001C5.149,0.001,0,5.15,0,11.501c0,6.35,5.149,11.498,11.5,11.498S23,17.851,23,11.501
		C23,5.15,17.852,0.001,11.5,0.001z M13.668,16.014H5.931v-2.018c0-0.521,0.603-0.736,0.939-0.877
		c1.102-0.458,1.454-0.843,1.454-1.669c0-0.496-0.336-0.334-0.484-1.243C7.777,9.83,7.48,10.201,7.424,9.34
		c0-0.343,0.162-0.429,0.162-0.429S7.503,8.403,7.471,8.013c-0.04-0.487,0.247-1.745,1.776-1.745s1.816,1.258,1.776,1.745
		c-0.033,0.391-0.115,0.898-0.115,0.898s0.163,0.086,0.163,0.429c-0.057,0.861-0.354,0.49-0.416,0.867
		c-0.147,0.909-0.484,0.747-0.484,1.243c0,0.826,0.352,1.211,1.454,1.669c1.103,0.46,2.042,0.906,2.042,1.381
		C13.668,14.819,13.668,16.014,13.668,16.014z M14.563,16.014v-1.646c0-0.804-0.242-0.986-2.049-1.886
		c0.34-0.235,0.461-0.503,0.461-0.925c0-0.372-0.252-0.251-0.363-0.933c-0.045-0.283-0.268-0.005-0.309-0.65
		c0-0.258,0.119-0.321,0.119-0.321s-0.063-0.381-0.084-0.674c-0.031-0.366,0.184-1.309,1.33-1.309S15.031,8.612,15,8.979
		c-0.023,0.293-0.086,0.674-0.086,0.674s0.123,0.063,0.123,0.321c-0.043,0.646-0.268,0.367-0.313,0.65
		c-0.111,0.682-0.363,0.561-0.363,0.933c0,0.62,0.264,0.907,1.092,1.252c0.828,0.344,1.275,0.566,1.465,0.89
		c0.129,0.219,0.152,2.315,0.152,2.315H14.563z"/>
</g>
</svg>
