<svg version="1.1" id="Layer_1" xmlns="http://www.w3.org/2000/svg" xmlns:xlink="http://www.w3.org/1999/xlink" x="0px" y="0px"
	 width="32px" height="32px" viewBox="0 0 32 32" enable-background="new 0 0 32 32" xml:space="preserve">
<path d="M32,30.162c0,0-0.063-6.088-0.436-6.723c-0.549-0.943-1.836-1.586-4.209-2.592
	c-2.375-0.996-3.133-1.84-3.133-3.639c0-1.084,0.727-0.732,1.038-2.713c0.134-0.818,0.776-0.01,0.901-1.887
	c0-0.746-0.354-0.934-0.354-0.934s0.178-1.109,0.25-1.959c0.082-1.064-0.539-3.809-3.826-3.809c-3.299,0-3.91,2.744-3.826,3.809
	c0.072,0.85,0.248,1.959,0.248,1.959s-0.352,0.188-0.352,0.934c0.123,1.877,0.768,1.068,0.891,1.887
	c0.322,1.98,1.047,1.629,1.047,2.713c0,1.229-0.352,2.006-1.326,2.695c5.184,2.607,5.879,3.143,5.879,5.477v4.781H32z
	 M16.363,21.756c-3.174-1.334-4.18-2.453-4.18-4.854c0-1.447,0.965-0.975,1.391-3.619c0.176-1.094,1.025-0.016,1.191-2.52
	c0-0.996-0.467-1.244-0.467-1.244s0.238-1.475,0.332-2.615c0.115-1.41-0.705-5.066-5.102-5.066c-4.387,0-5.215,3.656-5.102,5.066
	C4.521,8.045,4.76,9.52,4.76,9.52s-0.467,0.248-0.467,1.244c0.166,2.504,1.015,1.426,1.193,2.52
	c0.423,2.645,1.389,2.172,1.389,3.619c0,2.4-1.006,3.52-4.168,4.854C1.742,22.164,0,22.787,0,24.303v5.859h22.232
	c0,0,0-3.464,0-4.393C22.232,24.391,19.535,23.088,16.363,21.756z"/>
</svg>
